<svg xmlns="http://www.w3.org/2000/svg" viewBox="0 0 512 512" style="enable-background:new 0 0 512 512" xml:space="preserve"><path style="fill:#d8d8da" d="M456.092 220.69h47.08v70.621h-47.08z"/><path style="fill:#ededed" d="M8.828 220.69h329.563v70.621H8.828z"/><path style="fill:#d8d8da" d="M173.609 220.69h58.851v70.621h-58.851z"/><path style="fill:#88888f" d="M150.069 79.448c-19.502 0-35.31 15.808-35.31 35.31v23.54c0-19.502-15.808-35.31-35.31-35.31s-35.31 15.808-35.31 35.31V373.7c0 19.502 15.808 35.31 35.31 35.31s35.31-15.808 35.31-35.31v23.54c0 19.502 15.808 35.31 35.31 35.31s35.31-15.808 35.31-35.31V114.759c0-19.502-15.808-35.311-35.31-35.311zM432.552 102.989c-19.502 0-35.31 15.808-35.31 35.31v-23.54c0-19.502-15.808-35.31-35.31-35.31s-35.31 15.808-35.31 35.31v282.483c0 19.502 15.808 35.31 35.31 35.31s35.31-15.808 35.31-35.31v-23.54c0 19.502 15.808 35.31 35.31 35.31 19.502 0 35.31-15.808 35.31-35.31V138.299c0-19.502-15.808-35.31-35.31-35.31z"/><path style="fill:#797781" d="M79.448 102.989a35.136 35.136 0 0 0-17.655 4.735c10.551 6.106 17.655 17.507 17.655 30.575v235.402c0 13.067-7.104 24.469-17.655 30.575a35.139 35.139 0 0 0 17.655 4.735c19.502 0 35.31-15.808 35.31-35.31V138.299c.001-19.502-15.808-35.31-35.31-35.31zM150.069 79.448a35.136 35.136 0 0 0-17.655 4.735c10.551 6.106 17.655 17.507 17.655 30.575v282.483c0 13.067-7.104 24.469-17.655 30.575a35.139 35.139 0 0 0 17.655 4.735c19.502 0 35.31-15.808 35.31-35.31V114.759c0-19.502-15.808-35.311-35.31-35.311zM361.931 79.448a35.136 35.136 0 0 0-17.655 4.735c10.551 6.106 17.655 17.507 17.655 30.575v282.483c0 13.067-7.104 24.469-17.655 30.575a35.139 35.139 0 0 0 17.655 4.735c19.502 0 35.31-15.808 35.31-35.31V114.759c0-19.502-15.808-35.311-35.31-35.311zM432.552 102.989a35.136 35.136 0 0 0-17.655 4.735c10.551 6.106 17.655 17.507 17.655 30.575v235.402c0 13.067-7.104 24.469-17.655 30.575a35.139 35.139 0 0 0 17.655 4.735c19.502 0 35.31-15.808 35.31-35.31V138.299c0-19.502-15.808-35.31-35.31-35.31z"/><path style="fill:#2e2d31" d="M503.172 211.862H476.69v-26.483c0-4.876-3.951-8.828-8.828-8.828s-8.828 3.951-8.828 8.828v188.322c0 14.602-11.881 26.483-26.483 26.483s-26.483-11.881-26.483-26.483V138.299c0-14.602 11.881-26.483 26.483-26.483s26.483 11.881 26.483 26.483c0 4.876 3.951 8.828 8.828 8.828s8.828-3.951 8.828-8.828c0-24.338-19.8-44.138-44.138-44.138-10.531 0-20.208 3.712-27.803 9.889-4.797-19.179-22.173-33.429-42.817-33.429-24.338 0-44.138 19.8-44.138 44.138v97.103H194.207v-97.103c0-24.338-19.8-44.138-44.138-44.138-20.646 0-38.019 14.25-42.817 33.429-7.595-6.177-17.273-9.889-27.803-9.889-24.338 0-44.138 19.8-44.138 44.138v73.563H8.828A8.827 8.827 0 0 0 0 220.69v70.621a8.827 8.827 0 0 0 8.828 8.828H35.31v73.563c0 24.338 19.8 44.138 44.138 44.138 10.531 0 20.208-3.712 27.803-9.889 4.799 19.179 22.171 33.429 42.817 33.429 24.338 0 44.138-19.8 44.138-44.138v-58.851a8.827 8.827 0 0 0-8.828-8.828 8.827 8.827 0 0 0-8.828 8.828v58.851c0 14.602-11.881 26.483-26.483 26.483s-26.483-11.881-26.483-26.483V114.759c0-14.602 11.881-26.483 26.483-26.483s26.483 11.881 26.483 26.483V291.31a8.827 8.827 0 0 0 8.828 8.828h132.414v97.103c0 24.338 19.8 44.138 44.138 44.138 20.645 0 38.02-14.25 42.817-33.429 7.595 6.178 17.273 9.889 27.803 9.889 24.338 0 44.138-19.8 44.138-44.138v-73.563h26.483a8.827 8.827 0 0 0 8.828-8.828v-70.62a8.825 8.825 0 0 0-8.827-8.828zM17.655 282.483v-52.966H35.31v52.966H17.655zm61.793 117.701c-14.602 0-26.483-11.881-26.483-26.483V138.299c0-14.602 11.881-26.483 26.483-26.483s26.483 11.881 26.483 26.483v235.402c0 14.602-11.881 26.483-26.483 26.483zm114.759-117.701v-52.966h123.586v52.966H194.207zm194.207 114.758c0 14.602-11.881 26.483-26.483 26.483s-26.483-11.881-26.483-26.483V114.759c0-14.602 11.881-26.483 26.483-26.483s26.483 11.881 26.483 26.483v282.482zm105.931-114.758H476.69v-52.966h17.655v52.966z"/></svg>